<?xml version="1.0" encoding="UTF-8" standalone="no"?>
<!-- Created with Inkscape (http://www.inkscape.org/) -->

<svg
   width="756"
   height="320"
   viewBox="0 0 200.025 84.666666"
   version="1.1"
   id="svg5"
   xmlns="http://www.w3.org/2000/svg"
   xmlns:svg="http://www.w3.org/2000/svg">
  <defs
     id="defs2" />
  <g
     id="g2893"
     transform="matrix(1.000125,0,0,0.99607843,-5.0000754,-105.58432)"
     style="stroke-width:1.0019">
    <path
       id="rect2835"
       style="fill:#d40000;fill-opacity:0.992157;stroke-width:0.131275;stroke-linecap:square;stroke-miterlimit:0"
       transform="matrix(1.0194415,0,0,1,-4.3757088,2.9e-6)"
       d="m 55.725224,106 h 86.316426 v 85 H 55.725224 Z" />
    <g
       aria-label="FRANK"
       id="text236"
       style="font-weight:bold;font-size:58.7559px;font-family:'Playfair Display';-inkscape-font-specification:'Playfair Display, Bold';fill:#333333;fill-opacity:0.992157;stroke-width:0.131274;stroke-linecap:square;stroke-miterlimit:0"
       transform="matrix(1.0194415,0,0,1,-4.3757088,2.9e-6)">
      <path
         d="m 169.12983,169.29959 h 7.40324 v -20.44705 h 0.41129 l 18.03806,20.44705 h 10.3998 l -20.74084,-22.386 19.44821,-19.21318 h -9.98851 l -17.21548,17.62677 h -0.35253 v -17.62677 h -7.40324 z"
         style="font-weight:normal;font-family:Avenir;-inkscape-font-specification:'Avenir, Normal';stroke-width:0.131274"
         id="path2724" />
      <path
         d="m 129.7634,169.29959 v -31.90445 h 0.11751 l 20.56457,31.90445 h 9.40094 v -41.59918 h -7.40324 v 30.90561 h -0.11751 l -20.15328,-30.90561 h -9.81223 v 41.59918 z"
         style="font-weight:normal;font-size:58.7559px;font-family:Avenir;-inkscape-font-specification:'Avenir, Normal';fill:#333333;fill-opacity:0.992157;stroke-width:0.131274;stroke-linecap:square;stroke-miterlimit:0"
         id="path2722" />
      <path
         id="rect1003"
         style="font-weight:bold;font-size:58.7559px;font-family:'Playfair Display';-inkscape-font-specification:'Playfair Display, Bold';fill:#f8f9fa;fill-opacity:0.99215686;stroke-width:0.131275;stroke-linecap:square;stroke-miterlimit:0"
         d="m 122.35997,127.70022 v 41.59952 h 7.40369 v -31.90451 h 0.1173 l 12.1605,18.86603 v -13.42657 l -9.86917,-15.13447 z" />
      <path
         d="m 83.581254,169.29959 3.760378,-9.51845 h 18.038058 l 3.87789,9.51845 h 8.46085 L 99.797883,127.70041 H 93.39349 l -18.096818,41.59918 z m 12.808787,-32.78579 6.404389,16.9217 H 89.868136 Z"
         style="font-weight:normal;font-size:58.7559px;font-family:Avenir;-inkscape-font-specification:'Avenir, Normal';fill:#f8f9fa;fill-opacity:0.99215686;stroke-width:0.131274;stroke-linecap:square;stroke-miterlimit:0"
         id="path2720" />
      <path
         d="m 50.325465,169.29959 v -17.62677 h 5.405543 l 9.635968,17.62677 h 8.930897 l -11.046109,-18.3906 c 5.87559,-0.82258 9.635968,-5.053 9.635968,-11.28113 0,-9.10716 -7.285732,-11.92745 -15.276535,-11.92745 H 42.922222 v 41.59918 z m 0,-35.25354 h 6.639417 c 3.87789,0 8.167071,0.76383 8.167071,5.52305 0,5.17052 -4.465449,5.75808 -8.695874,5.75808 h -6.110614 z"
         style="font-weight:normal;font-size:58.7559px;font-family:Avenir;-inkscape-font-specification:'Avenir, Normal';fill:#333333;fill-opacity:0.992157;stroke-width:0.131274;stroke-linecap:square;stroke-miterlimit:0"
         id="path2718" />
      <path
         id="rect1003-9"
         style="font-weight:bold;font-size:58.7559px;font-family:'Playfair Display';-inkscape-font-specification:'Playfair Display, Bold';fill:#f8f9fa;fill-opacity:0.99215686;stroke-width:0.131275;stroke-linecap:square;stroke-miterlimit:0"
         d="m 55.724764,127.70022 v 6.34534 h 1.239718 c 3.877886,0 8.16746,0.76397 8.16746,5.52318 0,5.17052 -4.46569,5.75779 -8.69611,5.75779 h -0.711068 v 6.34587 h 0.0062 l 9.635588,17.62683 H 74.29779 L 63.251436,150.90862 c 5.875584,-0.82258 9.636105,-5.05284 9.636105,-11.28097 0,-9.10715 -7.285792,-11.92743 -15.276587,-11.92743 z" />
      <path
         d="m 9.1963689,169.29959 h 7.4032431 v -17.27423 h 18.331842 v -6.69818 H 16.599612 v -10.92859 h 19.448204 v -6.69818 H 9.1963689 Z"
         style="font-weight:normal;font-size:58.7559px;font-family:Avenir;-inkscape-font-specification:'Avenir, Normal';fill:#333333;fill-opacity:0.992157;stroke-width:0.131274;stroke-linecap:square;stroke-miterlimit:0"
         id="path2716" />
    </g>
  </g>
</svg>
